{
  "accessors": [
    {
      "bufferView": 2,
      "componentType": 5126,
      "count": 28121,
      "max": [
        0.09004200249910355,
        0.09404399991035461,
        0.076774001121521
      ],
      "min": [
        -0.07310699671506882,
        -0.102913998067379,
        -0.04206399992108345
      ],
      "type": "VEC3"
    },
    {
      "bufferView": 2,
      "byteOffset": 337452,
      "componentType": 5126,
      "count": 28121,
      "max": [
        0.9999938607215881,
        0.9998805522918701,
        0.997960090637207
      ],
      "min": [
        -0.9999204874038696,
        -0.9998968839645386,
        -0.9999992251396179
      ],
      "type": "VEC3"
    },
    {
      "bufferView": 3,
      "componentType": 5126,
      "count": 28121,
      "max": [
        0.9994617104530334,
        0.9999850392341614,
        0.9999457597732544,
        1.0
      ],
      "min": [
        -0.9998129606246948,
        -0.9999955296516418,
        -0.9999209642410278,
        1.0
      ],
      "type": "VEC4"
    },
    {
      "bufferView": 1,
      "componentType": 5126,
      "count": 28121,
      "max": [
        1.0,
        1.0
      ],
      "min": [
        0.0,
        0.0
      ],
      "type": "VEC2"
    },
    {
      "bufferView": 0,
      "componentType": 5125,
      "count": 151812,
      "type": "SCALAR"
    }
  ],
  "asset": {
    "extras": {
      "author": "vorobevdesign (https://sketchfab.com/vorobevdesign)",
      "license": "CC-BY-4.0 (http://creativecommons.org/licenses/by/4.0/)",
      "source": "https://sketchfab.com/3d-models/kfc-burger-f88abe5f8113424dbdf07878a56aeecc",
      "title": "KFC Burger"
    },
    "generator": "Sketchfab-15.40.0",
    "version": "2.0"
  },
  "bufferViews": [
    {
      "buffer": 0,
      "byteLength": 607248,
      "name": "floatBufferViews",
      "target": 34963
    },
    {
      "buffer": 0,
      "byteLength": 224968,
      "byteOffset": 607248,
      "byteStride": 8,
      "name": "floatBufferViews",
      "target": 34962
    },
    {
      "buffer": 0,
      "byteLength": 674904,
      "byteOffset": 832216,
      "byteStride": 12,
      "name": "floatBufferViews",
      "target": 34962
    },
    {
      "buffer": 0,
      "byteLength": 449936,
      "byteOffset": 1507120,
      "byteStride": 16,
      "name": "floatBufferViews",
      "target": 34962
    }
  ],
  "buffers": [
    {
      "byteLength": 1957056,
      "uri": "scene.bin"
    }
  ],
  "images": [
    {
      "uri": "textures/mesh_baseColor.jpeg"
    },
    {
      "uri": "textures/mesh_normal.png"
    }
  ],
  "materials": [
    {
      "doubleSided": true,
      "name": "mesh",
      "normalTexture": {
        "index": 1
      },
      "pbrMetallicRoughness": {
        "baseColorTexture": {
          "index": 0
        },
        "metallicFactor": 0.0,
        "roughnessFactor": 0.841886116991581
      }
    }
  ],
  "meshes": [
    {
      "name": "Object_0",
      "primitives": [
        {
          "attributes": {
            "NORMAL": 1,
            "POSITION": 0,
            "TANGENT": 2,
            "TEXCOORD_0": 3
          },
          "indices": 4,
          "material": 0,
          "mode": 4
        }
      ]
    }
  ],
  "nodes": [
    {
      "children": [
        1
      ],
      "matrix": [
        1.0,
        0.0,
        0.0,
        0.0,
        0.0,
        -0.008052882738411649,
        0.9999675750732422,
        0.0,
        0.0,
        -0.9999675750732422,
        -0.008052882738411649,
        0.0,
        0.0,
        0.0,
        0.0,
        1.0
      ],
      "name": "Sketchfab_model"
    },
    {
      "children": [
        2
      ],
      "name": "mesh.obj.cleaner.materialmerger.gles"
    },
    {
      "mesh": 0,
      "name": "Object_2"
    }
  ],
  "samplers": [
    {
      "magFilter": 9729,
      "minFilter": 9987,
      "wrapS": 10497,
      "wrapT": 10497
    }
  ],
  "scene": 0,
  "scenes": [
    {
      "name": "Sketchfab_Scene",
      "nodes": [
        0
      ]
    }
  ],
  "textures": [
    {
      "sampler": 0,
      "source": 0
    },
    {
      "sampler": 0,
      "source": 1
    }
  ]
}
